<svg xmlns="http://www.w3.org/2000/svg" version="1.1" xmlns:xlink="http://www.w3.org/1999/xlink" width="512" height="512" x="0" y="0" viewBox="0 0 512 512" style="enable-background:new 0 0 512 512" xml:space="preserve"><g><path d="M312.618 396.535a6.988 6.988 0 0 0-9.705 1.861l-35.182 51.871c-14.477-5.729-31.41-.131-39.44 13.755-8.806 15.256-3.553 34.847 11.714 43.674 4.923 2.842 10.386 4.293 15.925 4.293 2.786 0 5.592-.368 8.356-1.11 8.25-2.216 15.138-7.509 19.396-14.902 7.192-12.467 4.988-27.844-4.392-37.858l35.187-51.878a6.986 6.986 0 0 0-1.859-9.706zm-41.041 92.461-.003.006a17.849 17.849 0 0 1-10.911 8.381c-4.652 1.247-9.506.614-13.666-1.787-8.597-4.971-11.558-16-6.604-24.582 3.338-5.773 9.407-9.004 15.635-9.004 3.046 0 6.132.773 8.953 2.401l.159.089c8.469 5.007 11.36 15.965 6.437 24.496z" fill="#f8f8f8" opacity="1" data-original="#000000"></path><path d="M502.784 342.181h-27.397V6.999A6.987 6.987 0 0 0 468.4.012h-97.342a6.987 6.987 0 0 0-6.987 6.987v247.433a241.737 241.737 0 0 0-52.413-18.89v-126.92a6.987 6.987 0 0 0-6.987-6.987h-97.37a6.987 6.987 0 0 0-6.987 6.987v126.926a241.764 241.764 0 0 0-52.413 18.893v-25.544a6.987 6.987 0 0 0-6.987-6.987H43.572a6.987 6.987 0 0 0-6.987 6.987v113.286H9.216a6.987 6.987 0 1 0 0 13.974h33.103c-16.68 30.642-26.984 65.312-29.052 102.296a6.989 6.989 0 0 0 6.976 7.377h95.301a6.988 6.988 0 0 0 6.957-6.332c2.987-31.713 16.667-59.847 37.305-81.026a6.997 6.997 0 0 0 1.327-1.031 6.97 6.97 0 0 0 1.034-1.33c24.207-23.627 57.34-37.982 93.834-37.982 36.438 0 69.521 14.307 93.712 37.862.293.495.644.966 1.07 1.392.428.428.9.781 1.398 1.074 20.64 21.18 34.316 49.318 37.291 81.038a6.988 6.988 0 0 0 6.957 6.335h95.301a6.987 6.987 0 0 0 6.976-7.377c-2.068-36.983-12.372-71.654-29.05-102.296h33.128a6.988 6.988 0 0 0 0-13.976zM378.045 13.986h83.367v328.158a244.284 244.284 0 0 0-83.367-80.197zM50.559 235.882h83.367v26.073a244.297 244.297 0 0 0-83.367 80.195zm58.762 215.972H27.75c3.171-36.037 14.657-69.575 32.47-98.776.127-.189.246-.384.355-.585a229.692 229.692 0 0 1 28.505-37.251l57.358 57.382c-20.095 22.079-33.037 49.624-37.117 79.23zm139.692-127.537c-34.437 1.612-67.109 15.11-92.696 38.422l-57.35-57.374c39.534-37.186 92.212-60.427 150.046-62.166zm-34.725-91.633V115.608h83.396V232.68A244.1 244.1 0 0 0 256 229.107c-14.21 0-28.147 1.227-41.712 3.577zm48.699 91.633v-81.118c57.802 1.738 110.453 24.96 149.977 62.12l-57.361 57.361c-25.577-23.275-58.217-36.752-92.616-38.363zm221.235 127.537h-81.569c-4.074-29.632-17.033-57.204-37.165-79.297l57.365-57.365a229.632 229.632 0 0 1 28.529 37.271c.118.221.248.435.389.641 17.802 29.195 29.281 62.724 32.451 98.75z" fill="#f8f8f8" opacity="1" data-original="#000000"></path></g></svg>