<svg xmlns="http://www.w3.org/2000/svg" version="1.1" xmlns:xlink="http://www.w3.org/1999/xlink" width="512" height="512" x="0" y="0" viewBox="0 0 32 32" style="enable-background:new 0 0 512 512" xml:space="preserve" class=""><g><path d="M6.542 30.458h18.916c2.757 0 5-2.243 5-5V6.542c0-2.757-2.243-5-5-5H6.542c-2.756 0-5 2.244-5 5v18.916c0 2.757 2.243 5 5 5zm-3-23.916c0-1.654 1.346-3 3-3h18.916c1.654 0 3 1.346 3 3v18.916c0 1.654-1.346 3-3 3H6.542c-1.654 0-3-1.346-3-3z" fill="#f8f8f8" opacity="1" data-original="#000000"></path><path d="M9.553 23.787a1 1 0 0 0 1-1V9.213a1 1 0 0 0-2 0v13.574a1 1 0 0 0 1 1zM16 23.787a1 1 0 0 0 1-1V11.759a1 1 0 0 0-2 0v11.028a1 1 0 0 0 1 1zM22.447 23.787a1 1 0 0 0 1-1v-8.481a1 1 0 0 0-2 0v8.481a1 1 0 0 0 1 1z" fill="#f8f8f8" opacity="1" data-original="#000000"></path></g></svg>