<svg xmlns="http://www.w3.org/2000/svg" version="1.1" xmlns:xlink="http://www.w3.org/1999/xlink" width="512" height="512" x="0" y="0" viewBox="0 0 24 24" style="enable-background:new 0 0 512 512" xml:space="preserve" class=""><g><path fill="#171717" fill-rule="evenodd" d="M12 2a5 5 0 1 0 0 10 5 5 0 0 0 0-10zM9 7a3 3 0 1 1 6 0 3 3 0 0 1-6 0z" clip-rule="evenodd" opacity="1" data-original="#000000" class=""></path><path fill="#171717" d="M6 21a6 6 0 0 1 6-6 1 1 0 1 0 0-2 8 8 0 0 0-8 8 1 1 0 1 0 2 0z" opacity="1" data-original="#000000" class=""></path><path fill="#0fa892" d="M15 21a1 1 0 1 0 2 0v-2h2a1 1 0 1 0 0-2h-2v-2a1 1 0 1 0-2 0v2h-2a1 1 0 1 0 0 2h2z" opacity="1" data-original="#fa1228" class=""></path></g></svg>