<svg xmlns="http://www.w3.org/2000/svg" version="1.1" xmlns:xlink="http://www.w3.org/1999/xlink" width="512" height="512" x="0" y="0" viewBox="0 0 2000 2000" style="enable-background:new 0 0 512 512" xml:space="preserve" fill-rule="evenodd" class=""><g><path d="M1487 1115H513c-11 0-20-9-20-20V905c0-11 9-20 20-20h974c11 0 20 9 20 20v190c0 11-9 20-20 20z" fill="#ef4444" opacity="1" data-original="#000000" class=""></path><path d="M1000 1853c-471 0-853-382-853-853s382-853 853-853 853 382 853 853-382 853-853 853zm0-153c-386 0-700-314-700-700s314-700 700-700 700 314 700 700-314 700-700 700z" fill="#ef4444" opacity="1" data-original="#000000" class=""></path></g></svg>