<svg id="Layer_2" viewBox="0 0 512 512" xmlns="http://www.w3.org/2000/svg" data-name="Layer 2"><g id="Icon"><g id="_161" data-name="161"><rect id="Background" fill="#0098ff" height="512" rx="256" width="512"/><path d="m97.48 183.84 7.32-80.54c.61-6.75 8.83-9.73 13.62-4.93l20.19 20.19c71.1-60.26 177.94-56.52 244.59 11.26 69.49 70.66 68.99 183.39-1.08 253.47-70.29 70.29-184.26 70.29-254.56 0-27.68-27.68-44.46-62.13-50.34-98.02-1.6-9.77 5.89-18.65 15.79-18.65h28.44c7.65 0 14.2 5.41 15.69 12.91 4.34 21.88 14.82 42.76 31.43 59.92 46.37 47.91 121.94 49.16 169.8 2.74 48.2-46.76 48.65-123.73 1.33-171.05-43.28-43.28-111.38-46.6-158.47-9.95l19.1 19.1c4.8 4.8 1.82 13.01-4.93 13.62l-80.54 7.32c-9.95.9-18.29-7.43-17.38-17.38z" fill="#fff"/></g></g></svg>