<svg xmlns="http://www.w3.org/2000/svg" version="1.1" xmlns:xlink="http://www.w3.org/1999/xlink" width="512" height="512" x="0" y="0" viewBox="0 0 100 100" style="enable-background:new 0 0 512 512" xml:space="preserve" class=""><g><path fill="#ef4444" d="M72.968 84.33 57.562 95l-5.586-20.292-26.684-26.684L5 42.44l10.67-15.407a13.806 13.806 0 0 1 11.015-5.94l20.49-.494 32.228 32.227-.495 20.49a13.806 13.806 0 0 1-5.94 11.016z" opacity="1" data-original="#f15d5e" class=""></path><path fill="#d4d4d4" d="M73.435 59.5c-6.54 6.54-13.858 11.623-21.459 15.208L25.292 48.024c3.585-7.6 8.669-14.918 15.209-21.459a77.245 77.245 0 0 1 6.682-5.96C61.86 8.882 79.26 3.601 94.675 5.325 96.4 20.74 91.118 38.14 79.395 52.819a77.245 77.245 0 0 1-5.96 6.682z" opacity="1" data-original="#cfdee5" class=""></path><path fill="#f0ce58" d="M31.769 84.635c-4.532 4.532-24.676 8.272-24.676 8.272s3.74-20.143 8.273-24.675c4.525-4.526 9.806-2.468 14.338 2.064s6.59 9.814 2.065 14.339z" opacity="1" data-original="#fec865" class=""></path><circle cx="61.783" cy="38.217" r="9.009" fill="#0fa892" transform="rotate(-67.74 61.763 38.196)" opacity="1" data-original="#3fbda4" class=""></circle><path fill="#f7f7f725" d="M31.769 84.635c-4.532 4.532-24.676 8.272-24.676 8.272l22.611-22.61c4.533 4.531 6.59 9.813 2.065 14.338zM72.968 84.33 57.562 95l-5.586-20.292-13.342-13.342 56.04-56.04C96.4 20.739 91.119 38.14 79.397 52.818l.007.007-.495 20.49a13.806 13.806 0 0 1-5.94 11.016z" opacity="1" data-original="#f7f7f725" class=""></path><path d="M51.973 77.208a2.499 2.499 0 0 1-1.768-.732l-26.68-26.68a2.5 2.5 0 0 1-.494-2.835c3.829-8.118 9.112-15.578 15.704-22.17C54.636 8.89 75.647.68 94.953 2.841a2.499 2.499 0 0 1 2.207 2.206c2.157 19.3-6.05 40.317-21.95 56.218-6.593 6.592-14.052 11.876-22.17 15.704-.342.16-.706.239-1.067.239zM28.32 47.52l24.16 24.16c6.99-3.509 13.44-8.196 19.194-13.95C85.951 43.453 93.592 24.871 92.375 7.625 75.123 6.407 56.547 14.05 42.27 28.326c-5.754 5.755-10.44 12.205-13.95 19.194z" fill="#171717" opacity="1" data-original="#000000" class=""></path><path d="M25.294 50.528c-.22 0-.443-.03-.666-.09L4.336 44.842a2.5 2.5 0 0 1-1.39-3.833l10.667-15.401a16.36 16.36 0 0 1 13.017-7.019l20.482-.49a2.492 2.492 0 0 1 2.56 2.439 2.5 2.5 0 0 1-2.44 2.56l-20.482.49a11.344 11.344 0 0 0-9.027 4.866L9.062 40.96l16.895 4.659a2.5 2.5 0 0 1-.663 4.91zM57.568 97.5a2.5 2.5 0 0 1-2.41-1.835l-5.595-20.292a2.5 2.5 0 0 1 4.82-1.33L59.04 90.94l12.505-8.662a11.344 11.344 0 0 0 4.867-9.026l.49-20.482a2.478 2.478 0 0 1 2.56-2.44 2.5 2.5 0 0 1 2.439 2.56l-.49 20.482a16.36 16.36 0 0 1-7.02 13.016l-15.4 10.668a2.5 2.5 0 0 1-1.424.445zM7.094 95.406a2.5 2.5 0 0 1-2.457-2.956c.397-2.14 4.02-21.047 8.957-25.984 5.025-5.026 11.54-4.271 17.875 2.066 6.336 6.335 7.09 12.85 2.066 17.875-4.937 4.936-23.845 8.56-25.985 8.957a2.489 2.489 0 0 1-.456.042zm13.84-27.209c-1.359 0-2.59.589-3.805 1.804-2.467 2.467-5.216 12.235-6.838 19.709 7.473-1.622 17.24-4.372 19.709-6.838 1.53-1.531 2.065-3.084 1.686-4.888-.378-1.795-1.676-3.84-3.752-5.917-2.077-2.077-4.123-3.374-5.918-3.752a5.24 5.24 0 0 0-1.082-.118zM31.767 84.64h.01zM61.784 47.224a8.949 8.949 0 0 1-6.37-2.638c-1.7-1.701-2.638-3.964-2.638-6.37s.937-4.668 2.639-6.37a8.949 8.949 0 0 1 6.37-2.637c2.405 0 4.667.937 6.369 2.638 1.7 1.701 2.638 3.963 2.638 6.37a8.947 8.947 0 0 1-2.639 6.37 8.949 8.949 0 0 1-6.369 2.637zm0-13.016a3.98 3.98 0 0 0-2.834 1.174c-.757.757-1.174 1.764-1.174 2.834s.417 2.077 1.174 2.834c1.514 1.516 4.154 1.515 5.668 0 .758-.757 1.174-1.763 1.174-2.834s-.416-2.077-1.174-2.833a3.98 3.98 0 0 0-2.834-1.175z" fill="#171717" opacity="1" data-original="#000000" class=""></path></g></svg>