<svg width="512" height="512" viewBox="0 0 512 512" fill="none" xmlns="http://www.w3.org/2000/svg">
<g clip-path="url(#clip0_44_20)">
<path d="M374.251 275.904C371.436 274.634 368.313 274.208 365.261 274.678C362.209 275.147 359.359 276.492 357.056 278.549L268.331 357.547C266.353 359.303 264.843 361.522 263.934 364.005C263.026 366.489 262.748 369.159 263.125 371.776L277.419 471.552C278.272 477.547 282.816 482.176 288.555 484.096L293.291 484.843C297.793 484.816 302.106 483.023 305.301 479.851C330.234 455.041 349.998 425.532 363.452 393.034C376.906 360.535 383.781 325.691 383.68 290.517C383.693 287.43 382.808 284.405 381.134 281.811C379.461 279.217 377.069 277.165 374.251 275.904ZM221.504 128.299C186.33 128.196 151.486 135.07 118.986 148.523C86.4874 161.977 56.9794 181.743 32.1706 206.677L31.4239 207.403C29.3199 209.501 27.8426 212.144 27.1579 215.035C26.4731 217.927 26.6081 220.952 27.5478 223.77C28.4874 226.589 30.1943 229.09 32.4769 230.992C34.7595 232.895 37.5272 234.123 40.4693 234.539L140.245 248.832L142.507 249.003C144.763 249.003 146.994 248.526 149.053 247.603C151.112 246.68 152.952 245.333 154.453 243.648L233.451 154.923C235.497 152.618 236.835 149.771 237.302 146.724C237.769 143.678 237.347 140.561 236.085 137.748C234.823 134.936 232.775 132.548 230.189 130.872C227.602 129.196 224.586 128.302 221.504 128.299Z" fill="#4D81AB"/>
<path d="M253.397 408.555C251.297 408.555 249.216 408.141 247.276 407.335C245.336 406.53 243.574 405.349 242.091 403.861L108.139 269.909C105.248 267.019 103.574 263.132 103.458 259.046C103.343 254.96 104.797 250.984 107.52 247.936L207.915 135.488C279.019 52.2666 394.453 -2.09077 496.32 0.085232C500.431 0.182766 504.347 1.85933 507.254 4.76702C510.162 7.67472 511.838 11.5903 511.936 15.7012C514.283 116.992 459.776 232.981 376.277 304.32L264.085 404.48C261.146 407.109 257.34 408.56 253.397 408.555Z" fill="#CDD0D2"/>
<path d="M365.504 199.808C358.5 199.821 351.562 198.451 345.089 195.774C338.616 193.098 332.736 189.169 327.787 184.213C317.808 174.197 312.205 160.635 312.205 146.496C312.205 132.357 317.808 118.795 327.787 108.779C337.797 98.7894 351.362 93.1792 365.504 93.1792C379.646 93.1792 393.211 98.7894 403.221 108.779C413.2 118.795 418.803 132.357 418.803 146.496C418.803 160.635 413.2 174.197 403.221 184.213C398.272 189.17 392.393 193.1 385.92 195.776C379.447 198.452 372.508 199.823 365.504 199.808Z" fill="#4D81AB"/>
<path d="M15.9999 512C13.5051 511.999 11.045 511.415 8.8162 510.294C6.58737 509.173 4.65153 507.547 3.16328 505.545C1.67504 503.542 0.675645 501.22 0.244914 498.763C-0.185818 496.305 -0.035948 493.781 0.682554 491.392C6.03722 473.451 33.9626 382.827 55.7652 361.045C81.2159 335.616 125.547 335.616 150.955 361.045C163.669 373.781 170.667 390.656 170.667 408.661C170.667 426.645 163.669 443.541 150.955 456.256C129.173 478.037 38.5279 505.963 20.6079 511.339L15.9999 512Z" fill="#F59E0B"/>
<path d="M214.123 128.384C145.646 130.077 80.4631 158.122 32.1493 206.677L31.4239 207.403C29.3199 209.501 27.8426 212.144 27.1579 215.035C26.4731 217.927 26.6081 220.951 27.5478 223.77C28.4874 226.589 30.1943 229.09 32.4769 230.992C34.7595 232.895 37.5272 234.123 40.4693 234.539L110.507 244.587L207.915 135.467C209.941 133.099 212.011 130.731 214.123 128.384Z" fill="#44505B"/>
<path d="M490.368 0C392.917 0 284.203 50.752 214.123 128.384C212.011 130.731 209.941 133.077 207.893 135.467L110.507 244.587L107.52 247.936C104.797 250.984 103.343 254.96 103.458 259.046C103.574 263.132 105.248 267.019 108.139 269.909L175.125 336.896L327.787 184.235C317.808 174.219 312.205 160.656 312.205 146.517C312.205 132.379 317.808 118.816 327.787 108.8C338.176 98.4107 351.851 93.2053 365.504 93.2053C379.157 93.2053 392.832 98.4107 403.221 108.8L507.264 4.75733C504.356 1.84309 500.436 0.162112 496.32 0.064C494.336 0.0213362 492.352 1.6442e-06 490.368 0Z" fill="#CDD0D2"/>
<path d="M365.504 93.2052C351.851 93.2052 338.176 98.4106 327.787 108.8C317.808 118.816 312.205 132.379 312.205 146.517C312.205 160.656 317.808 174.218 327.787 184.235L403.2 108.8C398.257 103.842 392.381 99.9113 385.911 97.2348C379.441 94.5583 372.506 93.1888 365.504 93.2052Z" fill="#44505B"/>
<path d="M103.36 341.973C85.9093 341.973 68.4799 348.331 55.7439 361.045C33.9626 382.827 6.03728 473.472 0.661281 491.392C-0.167318 494.16 -0.232023 497.1 0.474016 499.902C1.18006 502.704 2.63056 505.262 4.67195 507.307L150.933 361.045C138.24 348.331 120.811 341.973 103.36 341.973Z" fill="#F59E0B"/>
</g>
<defs>
<clipPath id="clip0_44_20">
<rect width="512" height="512" fill="white"/>
</clipPath>
</defs>
</svg>
