<svg id="Layer_1" viewBox="0 0 64 64" xmlns="http://www.w3.org/2000/svg" data-name="Layer 1">
  <path d="M47.746 29.543c-.201-.388-.622-.609-1.052-.57-.434.044-.798.347-.918.768-1.155 4.041-4.145 5.251-6.438 4.661-1.666-.428-3.116-1.871-2.6-4.132.117-.514.237-1.017.354-1.512 1.532-6.448 2.854-12.018-5.573-20.445-.268-.269-.66-.374-1.027-.277s-.654.383-.754.75c-1.654 6.066-5.092 10.074-8.416 13.951-3.937 4.59-7.655 8.926-7.655 15.929 0 7.519 4.553 13.989 11.046 16.812.397.172.734-.32.432-.63-1.656-1.703-2.782-3.92-2.909-6.221-.26-4.736 2.04-8.565 5.733-11.637-1.339 11.685 6.048 12.313 12.759 10.515-.146 3.051-1.363 5.89-3.174 7.847-.268.29.045.755.418.626 7.182-2.483 12.36-9.296 12.36-17.312 0-3.834-1.98-7.952-2.586-9.123z" fill="#17314a"/>
</svg>


