<svg id="Layer_1" viewBox="0 0 100 100" xmlns="http://www.w3.org/2000/svg">
  <path d="M94.004 43.393c-11.721-13.214-27.388-20.562-44.004-20.562S17.717 30.179 6 43.393l-1.728 1.948c-2.356 2.656-2.357 6.652-.004 9.31l1.732 1.956c11.721 13.31 27.388 20.562 44.004 20.562s32.283-7.359 44.004-20.562l1.732-1.956c2.353-2.658 2.352-6.654-.004-9.31zM50.213 68.957c-10.441 0-18.963-8.521-18.963-18.963S39.772 31.031 50.213 31.031 69.176 39.552 69.176 50c0 10.441-8.521 18.963-18.963 18.963z" fill="#f4fbff"/>
  <path d="M50 62.569c6.925 0 12.572-5.647 12.572-12.572S56.925 37.425 50 37.425s-12.572 5.647-12.572 12.572S43.075 62.569 50 62.569z" fill="#f4fbff"/>
</svg>
