<svg id="Layer_1" viewBox="0 0 100 100" xmlns="http://www.w3.org/2000/svg">
  <g clip-rule="evenodd" fill="#17314a" fill-rule="evenodd">
    <path d="M92.694 6.557H7.34c-2.66-.011-4.828 2.146-4.84 4.817v28.947c-.011 2.671 2.146 4.84 4.806 4.85h85.354c2.66.011 4.828-2.146 4.84-4.806V11.374c.011-2.671-2.146-4.839-4.806-4.851zM21.053 30.699c-2.66 0-4.817-2.168-4.817-4.828-.011-2.66 2.157-4.828 4.817-4.828 2.671 0 4.828 2.168 4.828 4.828 0 2.66-2.157 4.828-4.828 4.828zm19.302 0c-2.66 0-4.828-2.168-4.828-4.828 0-2.66 2.168-4.828 4.828-4.828s4.828 2.168 4.828 4.828c0 2.66-2.168 4.828-4.828 4.828z" />
    <path d="M92.66 54.828H7.34c-2.66-.011-4.828 2.146-4.84 4.806v28.958c-.011 2.671 2.146 4.839 4.806 4.851h85.354c2.66 0 4.828-2.146 4.84-4.817V59.634c-.011-2.66-2.179-4.817-4.84-4.806zM21.053 78.947c-2.66 0-4.817-2.157-4.817-4.828-.011-2.66 2.157-4.828 4.817-4.828 2.671 0 4.828 2.168 4.828 4.828 0 2.671-2.157 4.828-4.828 4.828zm19.302 0c-2.66 0-4.828-2.157-4.828-4.828 0-2.66 2.168-4.828 4.828-4.828s4.828 2.168 4.828 4.828c0 2.671-2.168 4.828-4.828 4.828z" />
  </g>
</svg>
