<svg xmlns="http://www.w3.org/2000/svg" version="1.1" xmlns:xlink="http://www.w3.org/1999/xlink" width="512" height="512" x="0" y="0" viewBox="0 0 24 24" style="enable-background:new 0 0 512 512" xml:space="preserve" class=""><g><g fill="#000"><path d="M8.728 4.533a.75.75 0 1 0-1.056-1.066L6.23 4.896c-.536.531-.984.974-1.302 1.371-.335.417-.59.854-.657 1.387-.083.651.456 1.096.98 1.096H19a.75.75 0 0 0 0-1.5H6.064l.034-.044c.26-.322.645-.706 1.22-1.275zM5 15.25a.75.75 0 0 0 0 1.5h13.137a4.045 4.045 0 0 1-.035.043c-.259.323-.644.707-1.22 1.277l-1.41 1.397a.75.75 0 0 0 1.056 1.066l1.441-1.429c.537-.531.984-.974 1.303-1.371.334-.417.588-.854.656-1.387a2.76 2.76 0 0 0 .008-.07c.061-.603-.434-1.026-.936-1.026z" fill="#f8f8f8" opacity="1" data-original="#000000"></path></g></g></svg>