<svg xmlns="http://www.w3.org/2000/svg" version="1.1" xmlns:xlink="http://www.w3.org/1999/xlink" width="512" height="512" x="0" y="0" viewBox="0 0 512 512" style="enable-background:new 0 0 512 512" xml:space="preserve"><g><path d="M120.5 320.05h-20.49c-46.95 0-85.01-38.06-85.01-85.01 0-44.47 34.15-80.94 77.66-84.67a84.996 84.996 0 0 1-3.28-23.36c0-46.95 38.06-85.01 85.01-85.01 40.31 0 74.04 28.07 82.78 65.71 13.45-5.8 28.27-9.04 43.85-9.04 40.06 0 75.15 21.29 94.58 53.17a85.38 85.38 0 0 1 16.49-1.61c46.9 0 84.91 38.02 84.91 84.91s-38.01 84.91-84.91 84.91H391.5" style="stroke-width:30;stroke-linecap:round;stroke-linejoin:round;stroke-miterlimit:10;" fill="none" stroke="#fcfcfc" stroke-width="30" stroke-linecap="round" stroke-linejoin="round" stroke-miterlimit="10" data-original="#000000" opacity="1"></path><path d="M368.143 350H143.857c-12.899 0-23.357-10.457-23.357-23.357v-73.287c0-12.899 10.457-23.357 23.357-23.357h224.287c12.899 0 23.357 10.457 23.357 23.357v73.287C391.5 339.543 381.043 350 368.143 350z" style="stroke-width:30;stroke-linecap:round;stroke-linejoin:round;stroke-miterlimit:10;" fill="none" stroke="#fcfcfc" stroke-width="30" stroke-linecap="round" stroke-linejoin="round" stroke-miterlimit="10" data-original="#000000" opacity="1"></path><path d="M368.143 470H143.857c-12.899 0-23.357-10.457-23.357-23.357v-73.287c0-12.899 10.457-23.357 23.357-23.357h224.287c12.899 0 23.357 10.457 23.357 23.357v73.287C391.5 459.543 381.043 470 368.143 470zM180.5 410h0M180.5 290h0M331.5 290H241M331.5 410H241" style="stroke-width:30;stroke-linecap:round;stroke-linejoin:round;stroke-miterlimit:10;" fill="none" stroke="#fcfcfc" stroke-width="30" stroke-linecap="round" stroke-linejoin="round" stroke-miterlimit="10" data-original="#000000" opacity="1"></path></g></svg>